<?xml version="1.0" encoding="UTF-8"?>
<svg viewBox="0 0 437.5 437.5" xmlns="http://www.w3.org/2000/svg" xmlns:xlink="http://www.w3.org/1999/xlink">
 <path d="m125.21 354.01c-8.3824 4.4688-19.773 2.6997-25.128-8.4966-4.5016-10.389-81.022-170.44-83.141-175.5-6.2791-13.781-1.1632-23.008 7.759-27.85 12.277-6.7768 116.89-63.115 125.99-67.763 10.018-5.4716 20.871-4.7617 27.495 8.8886 5.2399 10.985 79.676 166.99 84.125 176.04 4.6859 9.7327 0.2725 21.273-9.2473 25.918-7.0935 3.5731-123.19 66.166-127.85 68.764z" fill="#ffffeb" fill-rule="evenodd" stroke="#005800" stroke-width="9.3438"/>
 <path d="m125.95 280.09c-9.3812-0.0353-18.786-7.0773-18.791-19.633 0.4129-11.425 0.3839-190.89 0.648-196.42 0.2733-15.304 8.769-21.079 18.791-21.118 13.839-0.15478 131.16-0.22024 141.26 0 11.267-0.07468 20.645 5.7649 20.735 21.118-0.0087 12.312-0.1099 187.16-1e-4 197.37 0.031 10.929-8.8241 19.104-19.295 18.681-7.8498-0.216-138.08-0.0818-143.34 0z" fill="#ffffeb" fill-rule="evenodd" stroke="#005800" stroke-width="9.3438"/>
 <path d="m172.6 324.56c-7.8774-5.4047-12.208-16.72-5.8203-27.29 6.1639-9.3792 97.501-160.44 100.54-164.94 8.0207-12.723 18.111-12.716 26.565-7.0067 11.726 7.7987 110.5 74.962 118.88 80.933 9.5206 6.3927 14.44 16.68 6.7004 29.653-6.275 10.357-95.372 157.46-100.48 166.11-5.5375 9.2156-17.152 11.023-25.749 4.6672-6.4966-4.6794-116.17-79.182-120.64-82.13z" fill="#ffffeb" fill-rule="evenodd" stroke="#005800" stroke-width="9.3438"/>
</svg>
