<?xml version="1.0" encoding="UTF-8" standalone="no"?>
<svg xmlns="http://www.w3.org/2000/svg" width="317.05008" height="380.84689" version="1.0">
  <path fill-rule="evenodd" stroke="#000" stroke-width="1pt" d="M22.401983 316.4654c2.65652-2.21377 6.6413-5.31304 11.95434-4.87029 5.31304.44276 17.26739 1.32826 21.69492.44276 4.42753-.88551 7.96956.44275 9.29782-3.09928 1.32826-3.54202 1.77101-15.05361 5.31304-19.48115 3.54203-4.42753 13.2826-9.29782 14.61086-13.72535 1.32826-4.42753 1.77102-6.19855 0-10.62608-1.77101-4.42754-5.75579-8.41232-11.51159-11.06884-5.75579-2.65652-11.06883-4.42753-11.06883-4.42753s-11.51159 10.62608-11.95434 13.2826c-.44275 2.65652.88551 5.31304-1.77102 6.6413-2.65652 1.32826-7.08405-2.65652-7.96956-9.74057-.8855-7.08406 2.21377-15.49637 1.77102-20.36666-.44276-4.87029-3.54203-9.29782-.88551-14.16811 2.65652-4.87028 8.85507-12.39709 13.72536-15.93912 4.87028-3.54202 13.2826-3.98478 14.61086-8.41231 1.32826-4.42754-8.41232-21.25216-8.41232-25.23695 0-3.98478 1.32826-11.51158-1.77101-17.71013-3.09927-6.19855-6.6413-19.48116-19.9239-27.89347-13.2826-8.41232-22.58043-11.95434-24.79419-18.15289-2.21377-6.19855-.44276-6.19855 2.21376-7.96956 2.65652-1.77102-7.08405-11.954338-10.1833204-21.694908-3.0992798-9.74058-8.4123198-29.22173-6.1985498-30.99275 2.21377-1.77101 8.8550702 0 10.1833302 3.54203 1.32826 3.54203 6.6413 25.23695 6.6413 25.23695s-1.32826-16.38188.8855-21.25217c2.21377-4.87029 4.87029-9.74057 7.52681-8.41231 2.65652 1.32826 1.32826 30.10723 1.32826 30.10723s2.65652-6.6413 4.42754-10.62608c1.77101-3.98478 3.09927-7.52681 5.31304-5.31304 2.21376 2.21377.44275 23.46593.44275 23.46593s3.54203-5.31304 6.19855-6.6413c2.65652-1.32826 3.98478-2.21377 5.75579.88551 1.77102 3.09927 1.32826 7.08405 1.32826 7.08405s1.32826-4.42753 4.42754-4.42753c3.09927 0 7.08405 1.32826 5.75579 4.87028-1.32826 3.54203 11.95434.44276 11.06883 6.6413-.8855 6.198548 0 11.954338 3.54203 11.954338s5.7558 4.87029 12.83985 3.09927c4.42753 2.65652-2.21377 19.0384.8855 16.82463 3.09927-2.21377 10.183339-3.98478 12.839857.88551 2.65652 4.87029-3.542028 10.62609-.00001 15.05363 3.54203 4.42753 0 8.41231 5.31304 11.95434 5.31305 3.54202 5.7558.8855 7.08406 8.85506 1.32826 7.96956 1.32826 11.51159 3.54203 14.61087 2.21376 3.09927 4.87028 5.31304 4.42753 11.95434-.44275 6.6413-4.42753 12.83984.88551 11.95434 5.31304-.88551 7.5268-6.19855 11.51158-8.41232 3.98479-2.21376 4.87029-2.65652 10.18333-6.6413s6.19855-9.29782 9.29782-10.62608c3.09928-1.32826 5.7558-.8855 10.18333-2.65652 4.42754-1.77101 8.85507-5.75579 11.06884-7.52681 2.21376-1.77101 2.21376-2.65652 6.19854-6.19854 3.98478-3.54203 7.96956-5.7558 10.62608-11.51159 2.65652-5.7558 2.21377-6.19855 5.31304-14.61087 3.09928-8.41232 2.21377-11.06884 3.98479-14.61086 1.77101-3.54203 1.77101-6.64131 4.87028-9.74058 3.09928-3.09927 5.7558-6.6413 6.19855-3.54203.44275 3.09928.44275 7.52681.44275 10.18333 0 2.65652 3.98478-3.98478 7.52681-10.62608 3.54203-6.6413 1.77101-7.526808 3.09927-13.282598 1.32826-5.75579 0-9.74057.44276-16.38187.44275-6.6413 1.32826-7.08406 1.77101-16.82464.44275-9.74057 1.22973-11.37626 1.22973-18.46031 0-7.08406-.2575-9.94947-.34422-15.18894 1.53715-4.02157 3.25956-5.25129 4.42753-4.87029 1.43861.381 3.36993.40597 4.52607 5.75579.88551 5.7558 1.68429 10.04801 2.55799 20.80941-.88551 10.62608-1.32826 19.92391.44275 22.58043 1.77101 2.65652 3.09927 2.21377 4.42753-.88551 1.32826-3.09927 1.32826-4.42753 3.09928-9.74058 1.77101-5.31304 1.65932-8.79465 2.56979-16.20976-.44275-11.06884.08673-16.11123.52948-24.52355.44275-8.412311-.0486-8.657987.88551-13.7253525.79878-4.796718 1.91814-5.93971498 5.75579-5.31303998 2.21377 2.65651998 2.65652 9.29782148 3.54203 15.05361248.88551 5.7558.88551 5.31304 1.32826 15.93912.44275 10.62609.06175 14.86836-.82375 18.41038-.20889 3.948-.99586 7.87103-.50451 9.48309 2.65652-1.77102 2.65652-4.87029 5.31304-11.06884 2.65652-6.19854 4.87029-11.51158 5.75579-18.59564.88551-7.08405 3.24775-9.67882 4.75994-17.476273 3.54203-7.5268075 4.31717-9.3464195 6.75165-9.5316825 2.5698 1.844582 3.78771 3.505242 3.54203 9.2978215-1.32826 6.198544-1.32826 9.297824-3.54203 15.496364-2.21377 6.19855-1.77101 8.85507-4.87029 15.49637-1.88136 5.82937-2.11388 7.80927-3.09927 9.74058 4.42753.44275 4.36578-1.31645 7.08405-4.42754 4.47748-8.52401 2.78003-6.72802 4.42754-9.29782 2.45945-5.14093 4.56285-7.03411 6.6413-6.19854 2.21377 3.54202 3.09927 4.42753 1.32826 8.41231-1.77101 3.98478-.44275 1.32826-3.09927 7.08405-2.65652 5.7558-5.31305 7.96956-1.77102 7.52681 3.54203-.44275 3.98478 0 6.19855-3.54203 2.21377-3.54202 0-3.98478 4.87029-6.19854 4.87028-2.21377 7.96956-6.19855 9.29782-3.09928 1.32826 3.09928 1.77101 2.65652-1.32826 7.08406-3.09928 4.42753-6.19855 5.75579-4.87029 7.96956 1.32826 2.21376 4.87029 2.65652 7.52681 2.65652 2.65652 0 3.09927.44275 1.77101 4.87029-1.32826 4.42753-1.77101 4.42753-2.21377 6.6413-.44275 2.21377 1.77102 3.98478 1.77102 3.98478s3.98478-2.65652.8855 3.98478c-3.09927 6.6413-4.87028 4.87029-6.6413 7.96956-1.77101 3.09928-3.54202 6.19855-.8855 6.19855s5.31304-.44276 4.87028 1.77101c-.44275 2.21377-4.42753 4.427528-2.21376 5.755788 2.21376 1.32826 3.98478-.44275 5.75579 1.32826 1.77101 1.77102 0 4.87029 0 7.08406 0 2.21376-.44275 3.98478.44275 6.19855.88551 2.21376 2.65653 4.42753 1.32826 6.6413-1.32826 2.21376.44276 2.65652-3.09927 4.87028-3.54203 2.21377-5.75579 1.77102-5.75579 3.98478 0 2.21377-.44276 1.77102 1.77101 3.54203s4.87029.44275 3.09927 4.42754c-1.77101 3.98478-1.32826 3.54203-2.21376 7.08406-.88551 3.54203.44275 1.77101-3.54203 10.18333-3.98478 8.41231-7.96956 14.61086-11.95434 16.82462-3.98478 2.21377-3.09927 7.08406-.44275 7.96957 2.65652.8855 3.09927 4.87028.44275 10.62608-2.65652 5.75579-5.75579 13.2826-6.6413 17.26738-.88551 3.98478-1.77102 4.42753-6.19855 9.29782s-7.96956 9.29782-11.95434 10.62608c-3.98478 1.32826-4.42753 5.7558-7.08405 7.96956-2.65652 2.21377-3.54203 3.54203-9.29783 3.54203-5.75579 0-5.75579-1.32826-11.51158.44275-5.7558 1.77102-8.41232 3.54203-8.85507 6.19855-.44275 2.65652-2.21377 3.98478-5.7558 3.09927-3.54202-.8855-.8855 1.77102-5.31304 3.54203-4.42753 1.77101-3.09927 3.98478-8.41231 3.54203-5.31304-.44276-7.96956-4.42754-9.29782 0-1.32826 4.42753-1.77101 7.96956-7.52681 3.98478-5.75579-3.98478-8.85507-14.61086-11.95434-3.54203-3.09927 11.06884-3.09927 13.72536.44275 16.82463 3.54203 3.09927 4.42754 5.75579 12.3971 8.85507 7.96956 3.09927 7.96956 6.6413 13.72535 8.85506 5.7558 2.21377 6.19855 3.09928 15.05362 7.52681 8.85507 4.42754 11.06883 5.7558 16.38187 8.85507 5.31304 3.09927 6.6413 6.19855 7.96956 9.29782 1.32826 3.09927 7.08406 6.6413 4.87029 11.06884-2.21377 4.42753-6.6413 1.77101-6.6413 3.98478 0 2.21376.88551 3.98478-.88551 8.41231-1.77101 4.42753-1.32826 6.19855-7.5268 7.96956-6.19855 1.77101-9.74058 2.65652-12.83985 1.32826-3.09928-1.32826-3.98478 3.98478-7.08406 2.65652-3.09927-1.32826-4.42753-5.31304-6.6413-3.09927-2.21376 2.21376 1.77102 3.54203-3.54202 4.87029-5.31304 1.32826-5.7558-2.21377-6.19855.8855-.44275 3.09928 1.32826 6.19855-4.42753 3.09928-5.7558-3.09928-3.98479-9.29783-8.41232-4.87029-4.42753 4.42753-2.21377 9.74057-10.18333 5.31304-7.96956-4.42753-5.31304-4.87029-11.51158-4.42753-6.19855.44275-6.19855.8855-8.41232-3.98479-2.21377-4.87028 2.21377-3.54202-7.52681-3.98478-9.74057-.44275-4.87028 5.7558-11.06883-2.65652-6.19855-8.41231-7.52681-16.82462-10.18333-7.5268-2.65652 9.29782 0 11.51158-3.98478 14.1681-3.98478 2.65653-24.35144 1.77102-24.35144 1.77102s-.44275 10.18333-2.21376 11.95434c-1.771018 1.77101-6.198547-1.77101-10.183327 1.77101-3.98478 3.54203-1.32826 5.7558-4.87029 8.85507-3.54202 3.09927-10.62608 3.54203-10.62608 3.54203s4.87029-3.98478 6.19855-7.52681c1.32826-3.54203 3.09927-9.74057 3.09927-9.74057s-7.08405 2.65652-10.18333 3.09927c-3.09927.44275-7.96956-.44275-7.96956-.44275l1.32826 10.18332s-8.41231 0-8.41231-3.54202c0-3.54203 2.65652-13.2826 4.87029-14.61086 2.21376-1.32826 5.31304-.88551 5.31304-.88551s-.88551-4.42754 1.32826-5.31304c2.21376-.88551 3.54202 0 7.08405 0 3.54203 0 19.481149-4.87029 19.481149-4.87029s-.44275-11.51159 1.32826-16.38187c1.771008-4.87029 10.183328-18.59565 6.198548-20.80941-3.98478-2.21377-7.084058-.44276-9.297818 1.77101-2.213769 2.21377-6.198549 8.85507-14.610859 10.62608-8.41232 1.77101-15.05362 2.65652-15.05362 2.65652s-1.77101.88551-1.77101 4.42754c0 3.54202 3.09927 7.08405-1.32826 11.51158-4.42754 4.42754-7.96956 8.41232-12.83985 6.19855-4.87029-2.21377-5.7558-4.87029-5.7558-4.87029s3.54203 2.21377 9.29783.88551c5.75579-1.32826 3.54202-12.39709 3.09927-14.61086-.44275-2.21377-4.87029-4.42754-7.52681-2.21377-2.65652 2.21377-6.19855 7.96956-3.98478 10.18333 2.21377 2.21377-6.19855-4.87029-5.75579-7.96956.44275-3.09927 1.77101-5.31304 1.77101-5.31304s-5.75579 0-9.29782-.44276c-3.54203-.44275-6.19855-2.21376-6.19855.44276s1.77102 14.61086-2.21376 7.08405c-3.98479-7.52681-5.7558-9.29782-1.77102-13.2826z"/>
</svg>